<svg width="207" height="202" viewBox="0 0 207 202" fill="none" xmlns="http://www.w3.org/2000/svg">
<circle cx="107.143" cy="94.1429" r="106.643" fill="#8E7D61" stroke="black"/>
<circle cx="106.618" cy="96.769" r="71.4538" fill="#4E535C" stroke="black"/>
<circle cx="107.143" cy="96.2437" r="59.374" fill="#8E7D61" stroke="black"/>
<circle cx="106.5" cy="97.5" r="13" fill="#35393F" stroke="#13161B"/>
<g filter="url(#filter0_d)">
<path d="M60.2812 105.352C58.1198 105.352 56.401 104.668 55.125 103.301C53.849 101.934 53.2109 100.085 53.2109 97.7539C53.2109 95.4102 53.8555 93.5482 55.1445 92.168C56.4336 90.7747 58.1654 90.0781 60.3398 90.0781C62.5013 90.0781 64.2135 90.7682 65.4766 92.1484C66.7526 93.5286 67.3906 95.3776 67.3906 97.6953C67.3906 100.039 66.7461 101.901 65.457 103.281C64.181 104.661 62.4557 105.352 60.2812 105.352ZM60.6133 103.516C62.8398 103.516 63.9531 101.751 63.9531 98.2227C63.9531 96.1914 63.6081 94.6354 62.918 93.5547C62.2279 92.4609 61.2513 91.9141 59.9883 91.9141C57.7617 91.9141 56.6484 93.6784 56.6484 97.207C56.6484 99.2383 56.9935 100.801 57.6836 101.895C58.3737 102.975 59.3503 103.516 60.6133 103.516ZM82.1562 105.352C80.3854 105.352 78.9727 104.707 77.918 103.418C76.8633 102.129 76.3359 100.391 76.3359 98.2031C76.3359 95.7292 77.013 93.7565 78.3672 92.2852C79.7344 90.8138 81.5638 90.0781 83.8555 90.0781C85.8346 90.0781 87.2148 90.6901 87.9961 91.9141L87.3711 93.3789C86.2122 92.4023 84.9688 91.9141 83.6406 91.9141C82.3646 91.9141 81.388 92.4023 80.7109 93.3789C80.0339 94.3424 79.6953 95.7227 79.6953 97.5195C79.6953 99.3034 80.0273 100.677 80.6914 101.641C81.3685 102.604 82.3255 103.086 83.5625 103.086C84.7474 103.086 85.9648 102.598 87.2148 101.621L87.5859 102.461C85.9714 104.388 84.1615 105.352 82.1562 105.352ZM89.3438 103.867L86.2188 103.066V85.1367H89.3438V103.867ZM86.2188 87.5391V85.0977L86.5312 85.7812L83.6797 84.707L83.7578 84.0039C85.0599 83.5352 86.5312 83.2682 88.1719 83.2031H89.3438V86.5625L86.2188 87.5391ZM87.0781 105.059L86.4141 102.52L89.3438 101.68V103.809L88.9141 103.027L91.2969 103.711L91.1992 104.844C90.1315 105.013 88.7578 105.085 87.0781 105.059ZM123.523 104.883V91.8164L126.648 91.4453V104.883H123.523ZM123.523 95.0586V92.5586L123.992 93.418L121.297 92.1289L121.375 91.3086C121.948 91.0612 122.612 90.8464 123.367 90.6641C124.122 90.4688 124.93 90.332 125.789 90.2539H126.648V93.3594L123.523 95.0586ZM121.414 105L121.512 103.828C121.85 103.672 122.215 103.535 122.605 103.418C123.009 103.288 123.445 103.171 123.914 103.066L123.523 104.512V101.836H126.648V104.512L126.316 103.223L128.836 103.789L128.738 105H121.414ZM124.793 87.7344C124.155 87.7344 123.647 87.5521 123.27 87.1875C122.905 86.8229 122.723 86.3281 122.723 85.7031C122.723 85.0781 122.905 84.5833 123.27 84.2188C123.647 83.8542 124.155 83.6719 124.793 83.6719C125.431 83.6719 125.932 83.8542 126.297 84.2188C126.674 84.5833 126.863 85.0781 126.863 85.7031C126.863 86.3281 126.674 86.8229 126.297 87.1875C125.932 87.5521 125.431 87.7344 124.793 87.7344ZM136.707 100.41C134.949 100.41 133.549 99.9479 132.508 99.0234C131.466 98.099 130.945 96.849 130.945 95.2734C130.945 93.6849 131.466 92.4284 132.508 91.5039C133.549 90.5664 134.962 90.0977 136.746 90.0977C137.775 90.0977 138.719 90.319 139.578 90.7617C140.451 91.2044 141.154 91.8164 141.688 92.5977C142.221 93.3659 142.488 94.2448 142.488 95.2344C142.488 96.8229 141.967 98.0859 140.926 99.0234C139.884 99.9479 138.478 100.41 136.707 100.41ZM136.961 98.7695C138.562 98.7695 139.363 97.7148 139.363 95.6055C139.363 93.0273 138.4 91.7383 136.473 91.7383C134.871 91.7383 134.07 92.7995 134.07 94.9219C134.07 96.1589 134.318 97.1094 134.812 97.7734C135.32 98.4375 136.036 98.7695 136.961 98.7695ZM144.051 92.4219L139.578 92.1875L136.746 90.0977C137.358 90.0977 137.833 90.1367 138.172 90.2148C138.51 90.2799 138.823 90.3516 139.109 90.4297C139.396 90.5078 139.767 90.5469 140.223 90.5469C140.548 90.5469 141.056 90.5273 141.746 90.4883C142.449 90.4362 143.283 90.3646 144.246 90.2734L144.051 92.4219ZM136.473 111.836C134.585 111.836 133.074 111.478 131.941 110.762C130.822 110.059 130.262 109.108 130.262 107.91C130.262 106.439 131.206 105.241 133.094 104.316L134.188 104.941C133.38 105.579 132.977 106.354 132.977 107.266C132.977 108.177 133.335 108.874 134.051 109.355C134.767 109.837 135.789 110.078 137.117 110.078C138.523 110.078 139.637 109.818 140.457 109.297C141.29 108.789 141.707 108.099 141.707 107.227C141.707 106.315 141.095 105.859 139.871 105.859H135.418C134.285 105.859 133.413 105.605 132.801 105.098C132.189 104.59 131.883 103.854 131.883 102.891C131.883 101.328 132.755 100.111 134.5 99.2383L135.691 99.4336C134.728 100.15 134.246 100.924 134.246 101.758C134.246 102.643 134.858 103.086 136.082 103.086H140.535C141.837 103.086 142.833 103.366 143.523 103.926C144.227 104.486 144.578 105.28 144.578 106.309C144.578 107.376 144.227 108.327 143.523 109.16C142.833 109.993 141.876 110.645 140.652 111.113C139.441 111.595 138.048 111.836 136.473 111.836ZM156.844 104.883V95.0391C156.844 93.2552 155.984 92.3633 154.266 92.3633C152.911 92.3633 151.544 92.9102 150.164 94.0039L149.773 93.0273C150.568 92.0898 151.479 91.3672 152.508 90.8594C153.536 90.3516 154.617 90.0977 155.75 90.0977C157.104 90.0977 158.146 90.4753 158.875 91.2305C159.604 91.9727 159.969 93.0404 159.969 94.4336V104.883H156.844ZM148.016 104.883V91.8359L151.141 92.6562V104.883H148.016ZM146.023 105L146.121 103.828C146.499 103.646 146.876 103.496 147.254 103.379C147.632 103.262 148.009 103.158 148.387 103.066L148.016 104.512V101.836H151.141V104.512L150.828 103.223L153.211 103.789L153.113 105H146.023ZM155.203 105L155.301 103.75C155.574 103.62 155.867 103.496 156.18 103.379C156.492 103.262 156.837 103.158 157.215 103.066L156.844 104.512V101.836H159.969V104.512L159.656 103.223L162.039 103.789L161.941 105H155.203ZM148.016 95.0586V92.5586L148.484 93.418L145.789 92.1289L145.867 91.3086C146.44 91.0612 147.104 90.8464 147.859 90.6641C148.615 90.4688 149.422 90.332 150.281 90.2539L151.023 93.3594L148.016 95.0586Z" fill="black"/>
<path d="M100.691 105.312C98.3346 105.312 96.5182 104.674 95.2422 103.398C93.9661 102.122 93.3281 100.299 93.3281 97.9297C93.3281 95.5339 93.9531 93.6263 95.2031 92.207C96.4531 90.7878 98.1393 90.0781 100.262 90.0781C102.163 90.0781 103.628 90.6771 104.656 91.875C105.685 93.0599 106.199 94.7656 106.199 96.9922C106.199 97.1875 106.193 97.3828 106.18 97.5781C106.167 97.7734 106.147 97.9622 106.121 98.1445L102.84 97.5195C102.84 95.5273 102.599 94.0885 102.117 93.2031C101.648 92.3177 100.88 91.875 99.8125 91.875C97.7292 91.875 96.6875 93.5221 96.6875 96.8164C96.6875 100.97 98.3477 103.047 101.668 103.047C102.97 103.047 104.331 102.78 105.75 102.246L105.613 104.082C105.001 104.473 104.266 104.779 103.406 105C102.56 105.208 101.655 105.312 100.691 105.312ZM94.5977 98.1445V96.543H105.809L106.121 98.1445H94.5977ZM113.309 105.312C111.499 105.312 109.995 104.896 108.797 104.062C108.693 103.581 108.615 103.027 108.562 102.402C108.51 101.764 108.504 101.113 108.543 100.449H110.066L111.668 103.809L110.398 102.637C111.388 103.275 112.462 103.594 113.621 103.594C115.301 103.594 116.141 102.923 116.141 101.582C116.141 100.592 115.464 99.8763 114.109 99.4336L112.508 98.9258C109.982 98.1315 108.719 96.6862 108.719 94.5898C108.719 93.2227 109.201 92.1354 110.164 91.3281C111.128 90.5208 112.417 90.1172 114.031 90.1172C115.49 90.1172 116.798 90.4167 117.957 91.0156C118.178 92.0052 118.27 93.0924 118.23 94.2773H116.629L115.027 90.918L116.941 92.7539C115.822 92.1419 114.747 91.8359 113.719 91.8359C112.286 91.8359 111.57 92.4544 111.57 93.6914C111.57 94.694 112.293 95.4297 113.738 95.8984L115.34 96.4062C116.603 96.8099 117.54 97.3633 118.152 98.0664C118.764 98.7695 119.07 99.6419 119.07 100.684C119.07 102.103 118.549 103.229 117.508 104.062C116.466 104.896 115.066 105.312 113.309 105.312Z" fill="#8E7D61"/>
</g>
<defs>
<filter id="filter0_d" x="49.2109" y="83.2031" width="116.828" height="36.6328" filterUnits="userSpaceOnUse" color-interpolation-filters="sRGB">
<feFlood flood-opacity="0" result="BackgroundImageFix"/>
<feColorMatrix in="SourceAlpha" type="matrix" values="0 0 0 0 0 0 0 0 0 0 0 0 0 0 0 0 0 0 127 0"/>
<feOffset dy="4"/>
<feGaussianBlur stdDeviation="2"/>
<feColorMatrix type="matrix" values="0 0 0 0 0 0 0 0 0 0 0 0 0 0 0 0 0 0 0.25 0"/>
<feBlend mode="normal" in2="BackgroundImageFix" result="effect1_dropShadow"/>
<feBlend mode="normal" in="SourceGraphic" in2="effect1_dropShadow" result="shape"/>
</filter>
</defs>
</svg>
