<svg width="174" height="81" viewBox="0 0 174 81" fill="none" xmlns="http://www.w3.org/2000/svg">
<path d="M13.8281 67.7031C10.2865 67.7031 7.46094 66.4141 5.35156 63.8359C3.24219 61.2578 2.1875 57.7812 2.1875 53.4062C2.1875 48.4583 3.54167 44.513 6.25 41.5703C8.98438 38.6276 12.6432 37.1562 17.2266 37.1562C21.1849 37.1562 23.9453 38.3802 25.5078 40.8281L24.2578 43.7578C21.9401 41.8047 19.4531 40.8281 16.7969 40.8281C14.2448 40.8281 12.2917 41.8047 10.9375 43.7578C9.58333 45.6849 8.90625 48.4453 8.90625 52.0391C8.90625 55.6068 9.57031 58.3542 10.8984 60.2812C12.2526 62.2083 14.1667 63.1719 16.6406 63.1719C19.0104 63.1719 21.4453 62.1953 23.9453 60.2422L24.6875 61.9219C21.4583 65.776 17.8385 67.7031 13.8281 67.7031ZM28.2031 64.7344L21.9531 63.1328V27.2734H28.2031V64.7344ZM21.9531 32.0781V27.1953L22.5781 28.5625L16.875 26.4141L17.0312 25.0078C19.6354 24.0703 22.5781 23.5365 25.8594 23.4062H28.2031V30.125L21.9531 32.0781ZM23.6719 67.1172L22.3438 62.0391L28.2031 60.3594V64.6172L27.3438 63.0547L32.1094 64.4219L31.9141 66.6875C29.7786 67.026 27.0312 67.1693 23.6719 67.1172ZM50.8984 67.625C46.1849 67.625 42.5521 66.349 40 63.7969C37.4479 61.2448 36.1719 57.599 36.1719 52.8594C36.1719 48.0677 37.4219 44.2526 39.9219 41.4141C42.4219 38.5755 45.7943 37.1562 50.0391 37.1562C53.8411 37.1562 56.7708 38.3542 58.8281 40.75C60.8854 43.1198 61.9141 46.5312 61.9141 50.9844C61.9141 51.375 61.901 51.7656 61.875 52.1562C61.849 52.5469 61.8099 52.9245 61.7578 53.2891L55.1953 52.0391C55.1953 48.0547 54.7135 45.1771 53.75 43.4062C52.8125 41.6354 51.276 40.75 49.1406 40.75C44.974 40.75 42.8906 44.0443 42.8906 50.6328C42.8906 58.9401 46.2109 63.0938 52.8516 63.0938C55.4557 63.0938 58.1771 62.5599 61.0156 61.4922L60.7422 65.1641C59.5182 65.9453 58.0469 66.5573 56.3281 67C54.6354 67.4167 52.8255 67.625 50.8984 67.625ZM38.7109 53.2891V50.0859H61.1328L61.7578 53.2891H38.7109Z" fill="black"/>
<path d="M118.102 57.8203C114.586 57.8203 111.786 56.8958 109.703 55.0469C107.62 53.1979 106.578 50.6979 106.578 47.5469C106.578 44.3698 107.62 41.8568 109.703 40.0078C111.786 38.1328 114.612 37.1953 118.18 37.1953C120.237 37.1953 122.125 37.638 123.844 38.5234C125.589 39.4089 126.995 40.6328 128.062 42.1953C129.13 43.7318 129.664 45.4896 129.664 47.4688C129.664 50.6458 128.622 53.1719 126.539 55.0469C124.456 56.8958 121.643 57.8203 118.102 57.8203ZM118.609 54.5391C121.812 54.5391 123.414 52.4297 123.414 48.2109C123.414 43.0547 121.487 40.4766 117.633 40.4766C114.43 40.4766 112.828 42.599 112.828 46.8438C112.828 49.3177 113.323 51.2188 114.312 52.5469C115.328 53.875 116.76 54.5391 118.609 54.5391ZM132.789 41.8438L123.844 41.375L118.18 37.1953C119.404 37.1953 120.354 37.2734 121.031 37.4297C121.708 37.5599 122.333 37.7031 122.906 37.8594C123.479 38.0156 124.221 38.0938 125.133 38.0938C125.784 38.0938 126.799 38.0547 128.18 37.9766C129.586 37.8724 131.253 37.7292 133.18 37.5469L132.789 41.8438ZM117.633 80.6719C113.857 80.6719 110.836 79.9557 108.57 78.5234C106.331 77.1172 105.211 75.2161 105.211 72.8203C105.211 69.8776 107.099 67.4818 110.875 65.6328L113.062 66.8828C111.448 68.1589 110.641 69.7083 110.641 71.5312C110.641 73.3542 111.357 74.7474 112.789 75.7109C114.221 76.6745 116.266 77.1562 118.922 77.1562C121.734 77.1562 123.961 76.6354 125.602 75.5938C127.268 74.5781 128.102 73.1979 128.102 71.4531C128.102 69.6302 126.878 68.7188 124.43 68.7188H115.523C113.258 68.7188 111.513 68.2109 110.289 67.1953C109.065 66.1797 108.453 64.7083 108.453 62.7812C108.453 59.6562 110.198 57.2214 113.688 55.4766L116.07 55.8672C114.143 57.2995 113.18 58.849 113.18 60.5156C113.18 62.2865 114.404 63.1719 116.852 63.1719H125.758C128.362 63.1719 130.354 63.7318 131.734 64.8516C133.141 65.9714 133.844 67.5599 133.844 69.6172C133.844 71.7526 133.141 73.6536 131.734 75.3203C130.354 76.987 128.44 78.2891 125.992 79.2266C123.57 80.1901 120.784 80.6719 117.633 80.6719ZM158.375 66.7656V47.0781C158.375 43.5104 156.656 41.7266 153.219 41.7266C150.51 41.7266 147.776 42.8203 145.016 45.0078L144.234 43.0547C145.823 41.1797 147.646 39.7344 149.703 38.7188C151.76 37.7031 153.922 37.1953 156.188 37.1953C158.896 37.1953 160.979 37.9505 162.438 39.4609C163.896 40.9453 164.625 43.0807 164.625 45.8672V66.7656H158.375ZM140.719 66.7656V40.6719L146.969 42.3125V66.7656H140.719ZM136.734 67L136.93 64.6562C137.685 64.2917 138.44 63.9922 139.195 63.7578C139.951 63.5234 140.706 63.3151 141.461 63.1328L140.719 66.0234V60.6719H146.969V66.0234L146.344 63.4453L151.109 64.5781L150.914 67H136.734ZM155.094 67L155.289 64.5C155.836 64.2396 156.422 63.9922 157.047 63.7578C157.672 63.5234 158.362 63.3151 159.117 63.1328L158.375 66.0234V60.6719H164.625V66.0234L164 63.4453L168.766 64.5781L168.57 67H155.094ZM140.719 47.1172V42.1172L141.656 43.8359L136.266 41.2578L136.422 39.6172C137.568 39.1224 138.896 38.6927 140.406 38.3281C141.917 37.9375 143.531 37.6641 145.25 37.5078L146.734 43.7188L140.719 47.1172Z" fill="black"/>
<path d="M72.9141 67.625C69.2943 67.625 66.2865 66.7917 63.8906 65.125C63.6823 64.1615 63.526 63.0547 63.4219 61.8047C63.3177 60.5286 63.3047 59.2266 63.3828 57.8984H66.4297L69.6328 64.6172L67.0938 62.2734C69.0729 63.5495 71.2214 64.1875 73.5391 64.1875C76.8984 64.1875 78.5781 62.8464 78.5781 60.1641C78.5781 58.1849 77.224 56.7526 74.5156 55.8672L71.3125 54.8516C66.2604 53.263 63.7344 50.3724 63.7344 46.1797C63.7344 43.4453 64.6979 41.2708 66.625 39.6562C68.5521 38.0417 71.1302 37.2344 74.3594 37.2344C77.276 37.2344 79.8932 37.8333 82.2109 39.0312C82.6536 41.0104 82.8359 43.1849 82.7578 45.5547H79.5547L76.3516 38.8359L80.1797 42.5078C77.9401 41.2839 75.7917 40.6719 73.7344 40.6719C70.8698 40.6719 69.4375 41.9089 69.4375 44.3828C69.4375 46.388 70.8828 47.8594 73.7734 48.7969L76.9766 49.8125C79.5026 50.6198 81.3776 51.7266 82.6016 53.1328C83.8255 54.5391 84.4375 56.2839 84.4375 58.3672C84.4375 61.2057 83.3958 63.4583 81.3125 65.125C79.2292 66.7917 76.4297 67.625 72.9141 67.625ZM93.3438 66.7656V40.6328L99.5938 39.8906V66.7656H93.3438ZM93.3438 47.1172V42.1172L94.2812 43.8359L88.8906 41.2578L89.0469 39.6172C90.1927 39.1224 91.5208 38.6927 93.0312 38.3281C94.5417 37.9375 96.1562 37.6641 97.875 37.5078H99.5938V43.7188L93.3438 47.1172ZM89.125 67L89.3203 64.6562C89.9974 64.3438 90.7266 64.0703 91.5078 63.8359C92.3151 63.5755 93.1875 63.3411 94.125 63.1328L93.3438 66.0234V60.6719H99.5938V66.0234L98.9297 63.4453L103.969 64.5781L103.773 67H89.125ZM95.8828 32.4688C94.6068 32.4688 93.5911 32.1042 92.8359 31.375C92.1068 30.6458 91.7422 29.6562 91.7422 28.4062C91.7422 27.1562 92.1068 26.1667 92.8359 25.4375C93.5911 24.7083 94.6068 24.3438 95.8828 24.3438C97.1589 24.3438 98.1615 24.7083 98.8906 25.4375C99.6458 26.1667 100.023 27.1562 100.023 28.4062C100.023 29.6562 99.6458 30.6458 98.8906 31.375C98.1615 32.1042 97.1589 32.4688 95.8828 32.4688Z" fill="#8E7D61"/>
<path d="M63.8906 65.125L62.9132 65.3363L62.9964 65.7211L63.3196 65.9459L63.8906 65.125ZM63.4219 61.8047L62.4252 61.886L62.4253 61.8877L63.4219 61.8047ZM63.3828 57.8984V56.8984H62.4399L62.3845 57.8397L63.3828 57.8984ZM66.4297 57.8984L67.3324 57.4681L67.0608 56.8984H66.4297V57.8984ZM69.6328 64.6172L68.9545 65.352L70.5355 64.1868L69.6328 64.6172ZM67.0938 62.2734L67.6356 61.433L66.4155 63.0082L67.0938 62.2734ZM74.5156 55.8672L74.8264 54.9167L74.8179 54.914L74.5156 55.8672ZM71.3125 54.8516L71.6147 53.8983L71.6125 53.8976L71.3125 54.8516ZM66.625 39.6562L65.9828 38.8897L66.625 39.6562ZM82.2109 39.0312L83.1868 38.813L83.0849 38.3573L82.6701 38.1429L82.2109 39.0312ZM82.7578 45.5547V46.5547H83.7254L83.7573 45.5876L82.7578 45.5547ZM79.5547 45.5547L78.652 45.985L78.9236 46.5547H79.5547V45.5547ZM76.3516 38.8359L77.0438 38.1143L75.4489 39.2663L76.3516 38.8359ZM80.1797 42.5078L79.7001 43.3853L80.8719 41.7861L80.1797 42.5078ZM73.7734 48.7969L73.4649 49.7481L73.4712 49.7501L73.7734 48.7969ZM76.9766 49.8125L77.281 48.86L77.2788 48.8593L76.9766 49.8125ZM81.3125 65.125L80.6878 64.3441L81.3125 65.125ZM72.9141 66.625C69.449 66.625 66.6534 65.8288 64.4617 64.3041L63.3196 65.9459C65.9195 67.7546 69.1396 68.625 72.9141 68.625V66.625ZM64.868 64.9137C64.6709 64.002 64.5199 62.9395 64.4184 61.7216L62.4253 61.8877C62.5322 63.1699 62.6937 64.3209 62.9132 65.3363L64.868 64.9137ZM64.4186 61.7233C64.3183 60.4957 64.3056 59.2404 64.3811 57.9572L62.3845 57.8397C62.3038 59.2127 62.3171 60.5616 62.4252 61.886L64.4186 61.7233ZM63.3828 58.8984H66.4297V56.8984H63.3828V58.8984ZM65.527 58.3288L68.7301 65.0475L70.5355 64.1868L67.3324 57.4681L65.527 58.3288ZM70.3111 63.8824L67.772 61.5386L66.4155 63.0082L68.9545 65.352L70.3111 63.8824ZM66.5519 63.1139C68.6898 64.4923 71.0259 65.1875 73.5391 65.1875V63.1875C71.4168 63.1875 69.456 62.6066 67.6356 61.433L66.5519 63.1139ZM73.5391 65.1875C75.3253 65.1875 76.8499 64.8354 77.9423 63.9631C79.0777 63.0565 79.5781 61.7266 79.5781 60.1641H77.5781C77.5781 61.2838 77.2387 61.9656 76.6944 62.4002C76.1071 62.8691 75.1122 63.1875 73.5391 63.1875V65.1875ZM79.5781 60.1641C79.5781 58.9201 79.1426 57.8211 78.2891 56.9185C77.4578 56.0392 76.273 55.3896 74.8264 54.9167L74.2049 56.8177C75.4666 57.2302 76.313 57.7395 76.8359 58.2925C77.3366 58.8221 77.5781 59.4288 77.5781 60.1641H79.5781ZM74.8179 54.914L71.6147 53.8983L71.0103 55.8048L74.2134 56.8204L74.8179 54.914ZM71.6125 53.8976C69.1979 53.1384 67.4864 52.0981 66.3819 50.8342C65.2933 49.5884 64.7344 48.0581 64.7344 46.1797H62.7344C62.7344 48.494 63.4385 50.5053 64.8759 52.1502C66.2974 53.7769 68.3751 54.9762 71.0125 55.8055L71.6125 53.8976ZM64.7344 46.1797C64.7344 43.7117 65.5885 41.8292 67.2672 40.4228L65.9828 38.8897C63.8073 40.7124 62.7344 43.1789 62.7344 46.1797H64.7344ZM67.2672 40.4228C68.9682 38.9976 71.2969 38.2344 74.3594 38.2344V36.2344C70.9635 36.2344 68.136 37.0857 65.9828 38.8897L67.2672 40.4228ZM74.3594 38.2344C77.1354 38.2344 79.5921 38.8033 81.7518 39.9196L82.6701 38.1429C80.1944 36.8633 77.4167 36.2344 74.3594 36.2344V38.2344ZM81.2351 39.2495C81.6565 41.1338 81.8342 43.2225 81.7584 45.5217L83.7573 45.5876C83.8377 43.1473 83.6508 40.887 83.1868 38.813L81.2351 39.2495ZM82.7578 44.5547H79.5547V46.5547H82.7578V44.5547ZM80.4574 45.1243L77.2542 38.4056L75.4489 39.2663L78.652 45.985L80.4574 45.1243ZM75.6593 39.5576L79.4875 43.2295L80.8719 41.7861L77.0438 38.1143L75.6593 39.5576ZM80.6593 41.6303C78.3075 40.345 75.995 39.6719 73.7344 39.6719V41.6719C75.5884 41.6719 77.5727 42.2227 79.7001 43.3853L80.6593 41.6303ZM73.7344 39.6719C72.1809 39.6719 70.8292 40.0041 69.8581 40.8428C68.859 41.7057 68.4375 42.9503 68.4375 44.3828H70.4375C70.4375 43.3413 70.7322 42.7305 71.1653 42.3564C71.6266 41.9581 72.4232 41.6719 73.7344 41.6719V39.6719ZM68.4375 44.3828C68.4375 45.6558 68.9076 46.7743 69.8081 47.691C70.6843 48.583 71.9335 49.2514 73.4649 49.7481L74.0819 47.8457C72.7227 47.4048 71.8039 46.8688 71.2349 46.2895C70.6901 45.7348 70.4375 45.1151 70.4375 44.3828H68.4375ZM73.4712 49.7501L76.6743 50.7657L77.2788 48.8593L74.0757 47.8436L73.4712 49.7501ZM76.6721 50.765C79.0938 51.539 80.7838 52.5675 81.8473 53.7893L83.3559 52.4763C81.9714 50.8857 79.9114 49.7006 77.281 48.86L76.6721 50.765ZM81.8473 53.7893C82.8939 54.9919 83.4375 56.4948 83.4375 58.3672H85.4375C85.4375 56.0729 84.7571 54.0862 83.3559 52.4763L81.8473 53.7893ZM83.4375 58.3672C83.4375 60.9243 82.517 62.8808 80.6878 64.3441L81.9372 65.9059C84.2747 64.0359 85.4375 61.4871 85.4375 58.3672H83.4375ZM80.6878 64.3441C78.8311 65.8295 76.2751 66.625 72.9141 66.625V68.625C76.5842 68.625 79.6272 67.7539 81.9372 65.9059L80.6878 64.3441ZM93.3438 66.7656H92.3438V67.7656H93.3438V66.7656ZM93.3438 40.6328L93.2258 39.6398L92.3438 39.7445V40.6328H93.3438ZM99.5938 39.8906H100.594V38.7648L99.4758 38.8976L99.5938 39.8906ZM99.5938 66.7656V67.7656H100.594V66.7656H99.5938ZM93.3438 47.1172H92.3438V48.7992L93.8214 47.9957L93.3438 47.1172ZM93.3438 42.1172L94.2216 41.6383L92.3438 42.1172H93.3438ZM94.2812 43.8359L93.8498 44.7381L96.6404 46.0727L95.1591 43.3571L94.2812 43.8359ZM88.8906 41.2578L87.8951 41.163L87.8289 41.8585L88.4592 42.1599L88.8906 41.2578ZM89.0469 39.6172L88.6504 38.6991L88.1075 38.9336L88.0514 39.5224L89.0469 39.6172ZM93.0312 38.3281L93.2659 39.3002L93.2738 39.2983L93.2816 39.2963L93.0312 38.3281ZM97.875 37.5078V36.5078H97.8296L97.7845 36.5119L97.875 37.5078ZM99.5938 37.5078H100.594V36.5078H99.5938V37.5078ZM99.5938 43.7188L100.071 44.5973L100.594 44.3133V43.7188H99.5938ZM89.125 67L88.1285 66.917L88.0382 68H89.125V67ZM89.3203 64.6562L88.9013 63.7483L88.3722 63.9925L88.3238 64.5732L89.3203 64.6562ZM91.5078 63.8359L91.7952 64.7938L91.805 64.7908L91.8148 64.7876L91.5078 63.8359ZM94.125 63.1328L95.0904 63.3937L95.5216 61.7981L93.9081 62.1566L94.125 63.1328ZM93.3438 66.0234H92.3438L94.3091 66.2843L93.3438 66.0234ZM93.3438 60.6719V59.6719H92.3438V60.6719H93.3438ZM99.5938 60.6719H100.594V59.6719H99.5938V60.6719ZM99.5938 66.0234L98.6254 66.2729L100.594 66.0234H99.5938ZM98.9297 63.4453L99.149 62.4697L97.5533 62.1109L97.9613 63.6947L98.9297 63.4453ZM103.969 64.5781L104.966 64.6585L105.035 63.7929L104.188 63.6025L103.969 64.5781ZM103.773 67V68H104.696L104.77 67.0804L103.773 67ZM92.8359 31.375L92.1288 32.0821L92.135 32.0883L92.1413 32.0944L92.8359 31.375ZM92.8359 25.4375L92.1413 24.7181L92.135 24.7242L92.1288 24.7304L92.8359 25.4375ZM98.8906 25.4375L98.1835 26.1446L98.1897 26.1508L98.196 26.1569L98.8906 25.4375ZM98.8906 31.375L98.196 30.6556L98.1897 30.6617L98.1835 30.6679L98.8906 31.375ZM94.3438 66.7656V40.6328H92.3438V66.7656H94.3438ZM93.4617 41.6258L99.7117 40.8836L99.4758 38.8976L93.2258 39.6398L93.4617 41.6258ZM98.5938 39.8906V66.7656H100.594V39.8906H98.5938ZM99.5938 65.7656H93.3438V67.7656H99.5938V65.7656ZM94.3438 47.1172V42.1172H92.3438V47.1172H94.3438ZM92.4659 42.596L93.4034 44.3148L95.1591 43.3571L94.2216 41.6383L92.4659 42.596ZM94.7127 42.9338L89.3221 40.3557L88.4592 42.1599L93.8498 44.7381L94.7127 42.9338ZM89.8861 41.3526L90.0424 39.712L88.0514 39.5224L87.8951 41.163L89.8861 41.3526ZM89.4433 40.5352C90.526 40.0677 91.798 39.6545 93.2659 39.3002L92.7966 37.356C91.2436 37.7309 89.8594 38.1771 88.6504 38.6991L89.4433 40.5352ZM93.2816 39.2963C94.7344 38.9205 96.2951 38.6556 97.9655 38.5037L97.7845 36.5119C96.0174 36.6726 94.3489 36.9545 92.7809 37.36L93.2816 39.2963ZM97.875 38.5078H99.5938V36.5078H97.875V38.5078ZM98.5938 37.5078V43.7188H100.594V37.5078H98.5938ZM99.1161 42.8402L92.8661 46.2387L93.8214 47.9957L100.071 44.5973L99.1161 42.8402ZM90.1215 67.083L90.3169 64.7393L88.3238 64.5732L88.1285 66.917L90.1215 67.083ZM89.7394 65.5642C90.37 65.2731 91.0548 65.0159 91.7952 64.7938L91.2205 62.8781C90.3983 63.1248 89.6248 63.4144 88.9013 63.7483L89.7394 65.5642ZM91.8148 64.7876C92.5889 64.5379 93.4309 64.3114 94.3419 64.109L93.9081 62.1566C92.9441 62.3708 92.0413 62.6131 91.2008 62.8842L91.8148 64.7876ZM93.1596 62.8719L92.3784 65.7625L94.3091 66.2843L95.0904 63.3937L93.1596 62.8719ZM94.3438 66.0234V60.6719H92.3438V66.0234H94.3438ZM93.3438 61.6719H99.5938V59.6719H93.3438V61.6719ZM98.5938 60.6719V66.0234H100.594V60.6719H98.5938ZM100.562 65.774L99.8981 63.1959L97.9613 63.6947L98.6254 66.2729L100.562 65.774ZM98.7104 64.421L103.749 65.5538L104.188 63.6025L99.149 62.4697L98.7104 64.421ZM102.972 64.4977L102.777 66.9196L104.77 67.0804L104.966 64.6585L102.972 64.4977ZM103.773 66H89.125V68H103.773V66ZM95.8828 31.4688C94.8067 31.4688 94.0607 31.1674 93.5305 30.6556L92.1413 32.0944C93.1216 33.0409 94.4068 33.4688 95.8828 33.4688V31.4688ZM93.543 30.6679C93.04 30.1648 92.7422 29.4511 92.7422 28.4062H90.7422C90.7422 29.8614 91.1736 31.1268 92.1288 32.0821L93.543 30.6679ZM92.7422 28.4062C92.7422 27.3614 93.04 26.6477 93.543 26.1446L92.1288 24.7304C91.1736 25.6857 90.7422 26.9511 90.7422 28.4062H92.7422ZM93.5305 26.1569C94.0607 25.6451 94.8067 25.3438 95.8828 25.3438V23.3438C94.4068 23.3438 93.1216 23.7716 92.1413 24.7181L93.5305 26.1569ZM95.8828 25.3438C96.9604 25.3438 97.6843 25.6454 98.1835 26.1446L99.5977 24.7304C98.6386 23.7713 97.3573 23.3438 95.8828 23.3438V25.3438ZM98.196 26.1569C98.7193 26.6621 99.0234 27.3717 99.0234 28.4062H101.023C101.023 26.9408 100.572 25.6713 99.5852 24.7181L98.196 26.1569ZM99.0234 28.4062C99.0234 29.4408 98.7193 30.1504 98.196 30.6556L99.5852 32.0944C100.572 31.1412 101.023 29.8717 101.023 28.4062H99.0234ZM98.1835 30.6679C97.6843 31.1671 96.9604 31.4688 95.8828 31.4688V33.4688C97.3573 33.4688 98.6386 33.0412 99.5977 32.0821L98.1835 30.6679Z" fill="#13161B"/>
</svg>
