<svg width="123" height="48" viewBox="0 0 123 48" fill="none" xmlns="http://www.w3.org/2000/svg">
<path d="M6.91406 34.3516C5.14323 34.3516 3.73047 33.707 2.67578 32.418C1.62109 31.1289 1.09375 29.3906 1.09375 27.2031C1.09375 24.7292 1.77083 22.7565 3.125 21.2852C4.49219 19.8138 6.32161 19.0781 8.61328 19.0781C10.5924 19.0781 11.9727 19.6901 12.7539 20.9141L12.1289 22.3789C10.9701 21.4023 9.72656 20.9141 8.39844 20.9141C7.1224 20.9141 6.14583 21.4023 5.46875 22.3789C4.79167 23.3424 4.45312 24.7227 4.45312 26.5195C4.45312 28.3034 4.78516 29.6771 5.44922 30.6406C6.1263 31.6042 7.08333 32.0859 8.32031 32.0859C9.50521 32.0859 10.7227 31.5977 11.9727 30.6211L12.3438 31.4609C10.7292 33.388 8.91927 34.3516 6.91406 34.3516ZM14.1016 32.8672L10.9766 32.0664V14.1367H14.1016V32.8672ZM10.9766 16.5391V14.0977L11.2891 14.7812L8.4375 13.707L8.51562 13.0039C9.81771 12.5352 11.2891 12.2682 12.9297 12.2031H14.1016V15.5625L10.9766 16.5391ZM11.8359 34.0586L11.1719 31.5195L14.1016 30.6797V32.8086L13.6719 32.0273L16.0547 32.7109L15.957 33.8438C14.8893 34.013 13.5156 34.0846 11.8359 34.0586ZM25.4492 34.3125C23.0924 34.3125 21.276 33.6745 20 32.3984C18.724 31.1224 18.0859 29.2995 18.0859 26.9297C18.0859 24.5339 18.7109 22.6263 19.9609 21.207C21.2109 19.7878 22.8971 19.0781 25.0195 19.0781C26.9206 19.0781 28.3854 19.6771 29.4141 20.875C30.4427 22.0599 30.957 23.7656 30.957 25.9922C30.957 26.1875 30.9505 26.3828 30.9375 26.5781C30.9245 26.7734 30.9049 26.9622 30.8789 27.1445L27.5977 26.5195C27.5977 24.5273 27.3568 23.0885 26.875 22.2031C26.4062 21.3177 25.638 20.875 24.5703 20.875C22.487 20.875 21.4453 22.5221 21.4453 25.8164C21.4453 29.9701 23.1055 32.0469 26.4258 32.0469C27.7279 32.0469 29.0885 31.7799 30.5078 31.2461L30.3711 33.082C29.7591 33.4727 29.0234 33.7786 28.1641 34C27.3177 34.2083 26.4128 34.3125 25.4492 34.3125ZM19.3555 27.1445V25.543H30.5664L30.8789 27.1445H19.3555Z" fill="black"/>
<path d="M61.0508 29.4102C59.293 29.4102 57.8932 28.9479 56.8516 28.0234C55.8099 27.099 55.2891 25.849 55.2891 24.2734C55.2891 22.6849 55.8099 21.4284 56.8516 20.5039C57.8932 19.5664 59.306 19.0977 61.0898 19.0977C62.1185 19.0977 63.0625 19.319 63.9219 19.7617C64.7943 20.2044 65.4974 20.8164 66.0312 21.5977C66.5651 22.3659 66.832 23.2448 66.832 24.2344C66.832 25.8229 66.3112 27.0859 65.2695 28.0234C64.2279 28.9479 62.8216 29.4102 61.0508 29.4102ZM61.3047 27.7695C62.9062 27.7695 63.707 26.7148 63.707 24.6055C63.707 22.0273 62.7435 20.7383 60.8164 20.7383C59.2148 20.7383 58.4141 21.7995 58.4141 23.9219C58.4141 25.1589 58.6615 26.1094 59.1562 26.7734C59.6641 27.4375 60.3802 27.7695 61.3047 27.7695ZM68.3945 21.4219L63.9219 21.1875L61.0898 19.0977C61.7018 19.0977 62.1771 19.1367 62.5156 19.2148C62.8542 19.2799 63.1667 19.3516 63.4531 19.4297C63.7396 19.5078 64.1107 19.5469 64.5664 19.5469C64.8919 19.5469 65.3997 19.5273 66.0898 19.4883C66.793 19.4362 67.6263 19.3646 68.5898 19.2734L68.3945 21.4219ZM60.8164 40.8359C58.9284 40.8359 57.418 40.4779 56.2852 39.7617C55.1654 39.0586 54.6055 38.1081 54.6055 36.9102C54.6055 35.4388 55.5495 34.2409 57.4375 33.3164L58.5312 33.9414C57.724 34.5794 57.3203 35.3542 57.3203 36.2656C57.3203 37.1771 57.6784 37.8737 58.3945 38.3555C59.1107 38.8372 60.1328 39.0781 61.4609 39.0781C62.8672 39.0781 63.9805 38.8177 64.8008 38.2969C65.6341 37.7891 66.0508 37.099 66.0508 36.2266C66.0508 35.3151 65.4388 34.8594 64.2148 34.8594H59.7617C58.6289 34.8594 57.7565 34.6055 57.1445 34.0977C56.5326 33.5898 56.2266 32.8542 56.2266 31.8906C56.2266 30.3281 57.099 29.1107 58.8438 28.2383L60.0352 28.4336C59.0716 29.1497 58.5898 29.9245 58.5898 30.7578C58.5898 31.6432 59.2018 32.0859 60.4258 32.0859H64.8789C66.181 32.0859 67.1771 32.3659 67.8672 32.9258C68.5703 33.4857 68.9219 34.2799 68.9219 35.3086C68.9219 36.3763 68.5703 37.3268 67.8672 38.1602C67.1771 38.9935 66.2201 39.6445 64.9961 40.1133C63.7852 40.5951 62.3919 40.8359 60.8164 40.8359ZM81.1875 33.8828V24.0391C81.1875 22.2552 80.3281 21.3633 78.6094 21.3633C77.2552 21.3633 75.888 21.9102 74.5078 23.0039L74.1172 22.0273C74.9115 21.0898 75.8229 20.3672 76.8516 19.8594C77.8802 19.3516 78.9609 19.0977 80.0938 19.0977C81.4479 19.0977 82.4896 19.4753 83.2188 20.2305C83.9479 20.9727 84.3125 22.0404 84.3125 23.4336V33.8828H81.1875ZM72.3594 33.8828V20.8359L75.4844 21.6562V33.8828H72.3594ZM70.3672 34L70.4648 32.8281C70.8424 32.6458 71.2201 32.4961 71.5977 32.3789C71.9753 32.2617 72.3529 32.1576 72.7305 32.0664L72.3594 33.5117V30.8359H75.4844V33.5117L75.1719 32.2227L77.5547 32.7891L77.457 34H70.3672ZM79.5469 34L79.6445 32.75C79.918 32.6198 80.2109 32.4961 80.5234 32.3789C80.8359 32.2617 81.181 32.1576 81.5586 32.0664L81.1875 33.5117V30.8359H84.3125V33.5117L84 32.2227L86.3828 32.7891L86.2852 34H79.5469ZM72.3594 24.0586V21.5586L72.8281 22.418L70.1328 21.1289L70.2109 20.3086C70.7839 20.0612 71.4479 19.8464 72.2031 19.6641C72.9583 19.4688 73.7656 19.332 74.625 19.2539L75.3672 22.3594L72.3594 24.0586Z" fill="black"/>
<path d="M37.957 34.3125C36.1471 34.3125 34.6432 33.8958 33.4453 33.0625C33.3411 32.5807 33.263 32.0273 33.2109 31.4023C33.1589 30.7643 33.1523 30.1133 33.1914 29.4492H34.7148L36.3164 32.8086L35.0469 31.6367C36.0365 32.2747 37.1107 32.5938 38.2695 32.5938C39.9492 32.5938 40.7891 31.9232 40.7891 30.582C40.7891 29.5924 40.112 28.8763 38.7578 28.4336L37.1562 27.9258C34.6302 27.1315 33.3672 25.6862 33.3672 23.5898C33.3672 22.2227 33.849 21.1354 34.8125 20.3281C35.776 19.5208 37.0651 19.1172 38.6797 19.1172C40.138 19.1172 41.4466 19.4167 42.6055 20.0156C42.8268 21.0052 42.918 22.0924 42.8789 23.2773H41.2773L39.6758 19.918L41.5898 21.7539C40.4701 21.1419 39.3958 20.8359 38.3672 20.8359C36.9349 20.8359 36.2188 21.4544 36.2188 22.6914C36.2188 23.694 36.9414 24.4297 38.3867 24.8984L39.9883 25.4062C41.2513 25.8099 42.1888 26.3633 42.8008 27.0664C43.4128 27.7695 43.7188 28.6419 43.7188 29.6836C43.7188 31.1029 43.1979 32.2292 42.1562 33.0625C41.1146 33.8958 39.7148 34.3125 37.957 34.3125ZM48.1719 33.8828V20.8164L51.2969 20.4453V33.8828H48.1719ZM48.1719 24.0586V21.5586L48.6406 22.418L45.9453 21.1289L46.0234 20.3086C46.5964 20.0612 47.2604 19.8464 48.0156 19.6641C48.7708 19.4688 49.5781 19.332 50.4375 19.2539H51.2969V22.3594L48.1719 24.0586ZM46.0625 34L46.1602 32.8281C46.4987 32.6719 46.8633 32.5352 47.2539 32.418C47.6576 32.2878 48.0938 32.1706 48.5625 32.0664L48.1719 33.5117V30.8359H51.2969V33.5117L50.9648 32.2227L53.4844 32.7891L53.3867 34H46.0625ZM49.4414 16.7344C48.8034 16.7344 48.2956 16.5521 47.918 16.1875C47.5534 15.8229 47.3711 15.3281 47.3711 14.7031C47.3711 14.0781 47.5534 13.5833 47.918 13.2188C48.2956 12.8542 48.8034 12.6719 49.4414 12.6719C50.0794 12.6719 50.5807 12.8542 50.9453 13.2188C51.3229 13.5833 51.5117 14.0781 51.5117 14.7031C51.5117 15.3281 51.3229 15.8229 50.9453 16.1875C50.5807 16.5521 50.0794 16.7344 49.4414 16.7344Z" fill="#8E7D61"/>
<path d="M33.4453 33.0625L32.4679 33.2738L32.5511 33.6586L32.8742 33.8834L33.4453 33.0625ZM33.2109 31.4023L32.2143 31.4837L32.2144 31.4854L33.2109 31.4023ZM33.1914 29.4492V28.4492H32.2485L32.1931 29.3905L33.1914 29.4492ZM34.7148 29.4492L35.6175 29.0189L35.3459 28.4492H34.7148V29.4492ZM36.3164 32.8086L35.6381 33.5434L37.2191 32.3783L36.3164 32.8086ZM35.0469 31.6367L35.5887 30.7963L34.3686 32.3715L35.0469 31.6367ZM38.7578 28.4336L39.0686 27.4831L39.0601 27.4804L38.7578 28.4336ZM37.1562 27.9258L37.4585 26.9725L37.4562 26.9718L37.1562 27.9258ZM34.8125 20.3281L34.1703 19.5616L34.8125 20.3281ZM42.6055 20.0156L43.5814 19.7973L43.4794 19.3417L43.0646 19.1273L42.6055 20.0156ZM42.8789 23.2773V24.2773H43.8465L43.8784 23.3103L42.8789 23.2773ZM41.2773 23.2773L40.3747 23.7077L40.6463 24.2773H41.2773V23.2773ZM39.6758 19.918L40.368 19.1963L38.7731 20.3483L39.6758 19.918ZM41.5898 21.7539L41.1103 22.6314L42.2821 21.0322L41.5898 21.7539ZM38.3867 24.8984L38.0782 25.8497L38.0845 25.8517L38.3867 24.8984ZM39.9883 25.4062L40.2927 24.4537L40.2905 24.453L39.9883 25.4062ZM42.1562 33.0625L41.5316 32.2816L42.1562 33.0625ZM37.957 33.3125C36.3018 33.3125 35.0102 32.9329 34.0164 32.2416L32.8742 33.8834C34.2763 34.8587 35.9925 35.3125 37.957 35.3125V33.3125ZM34.4227 32.8512C34.3298 32.4213 34.2569 31.9122 34.2075 31.3193L32.2144 31.4854C32.2692 32.1425 32.3525 32.7402 32.4679 33.2738L34.4227 32.8512ZM34.2076 31.321C34.1595 30.7313 34.1533 30.1271 34.1897 29.5079L32.1931 29.3905C32.1514 30.0994 32.1582 30.7973 32.2143 31.4837L34.2076 31.321ZM33.1914 30.4492H34.7148V28.4492H33.1914V30.4492ZM33.8122 29.8796L35.4137 33.2389L37.2191 32.3783L35.6175 29.0189L33.8122 29.8796ZM36.9947 32.0738L35.7252 30.9019L34.3686 32.3715L35.6381 33.5434L36.9947 32.0738ZM34.505 32.4772C35.6534 33.2176 36.9152 33.5938 38.2695 33.5938V31.5938C37.3061 31.5938 36.4195 31.3319 35.5887 30.7963L34.505 32.4772ZM38.2695 33.5938C39.2159 33.5938 40.1106 33.4092 40.7831 32.8723C41.4986 32.301 41.7891 31.474 41.7891 30.582H39.7891C39.7891 31.0312 39.6596 31.2101 39.5352 31.3094C39.3679 31.443 39.0029 31.5938 38.2695 31.5938V33.5938ZM41.7891 30.582C41.7891 29.8329 41.5228 29.1603 41.0079 28.6157C40.5151 28.0945 39.8381 27.7347 39.0686 27.4831L38.4471 29.3841C39.0317 29.5752 39.3703 29.7948 39.5546 29.9897C39.7168 30.1613 39.7891 30.3416 39.7891 30.582H41.7891ZM39.0601 27.4804L37.4585 26.9726L36.854 28.879L38.4556 29.3868L39.0601 27.4804ZM37.4562 26.9718C36.3046 26.6097 35.5405 26.1293 35.0674 25.5881C34.6103 25.065 34.3672 24.4201 34.3672 23.5898H32.3672C32.3672 24.856 32.7555 25.9819 33.5615 26.9041C34.3515 27.8082 35.4818 28.4476 36.8563 28.8797L37.4562 26.9718ZM34.3672 23.5898C34.3672 22.4891 34.7396 21.6938 35.4547 21.0946L34.1703 19.5616C32.9583 20.577 32.3672 21.9562 32.3672 23.5898H34.3672ZM35.4547 21.0946C36.1921 20.4768 37.2318 20.1172 38.6797 20.1172V18.1172C36.8984 18.1172 35.36 18.5649 34.1703 19.5616L35.4547 21.0946ZM38.6797 20.1172C39.9973 20.1172 41.1454 20.3867 42.1463 20.904L43.0646 19.1273C41.7478 18.4467 40.2787 18.1172 38.6797 18.1172V20.1172ZM41.6296 20.2339C41.8297 21.1286 41.9162 22.1301 41.8794 23.2444L43.8784 23.3103C43.9198 22.0548 43.8239 20.8818 43.5814 19.7973L41.6296 20.2339ZM42.8789 22.2773H41.2773V24.2773H42.8789V22.2773ZM42.18 22.847L40.5784 19.4876L38.7731 20.3483L40.3747 23.7077L42.18 22.847ZM38.9836 20.6397L40.8976 22.4756L42.2821 21.0322L40.368 19.1963L38.9836 20.6397ZM42.0694 20.8764C40.8374 20.2031 39.5991 19.8359 38.3672 19.8359V21.8359C39.1925 21.8359 40.1027 22.0807 41.1103 22.6314L42.0694 20.8764ZM38.3672 19.8359C37.5299 19.8359 36.7152 20.0136 36.1022 20.543C35.4612 21.0966 35.2188 21.8774 35.2188 22.6914H37.2188C37.2188 22.2684 37.3344 22.1215 37.4095 22.0566C37.5126 21.9675 37.7722 21.8359 38.3672 21.8359V19.8359ZM35.2188 22.6914C35.2188 23.4631 35.5082 24.147 36.0474 24.6959C36.5623 25.2201 37.2694 25.5874 38.0782 25.8497L38.6952 23.9472C38.0587 23.7408 37.6819 23.5058 37.4741 23.2944C37.2906 23.1076 37.2188 22.9223 37.2188 22.6914H35.2188ZM38.0845 25.8517L39.686 26.3595L40.2905 24.453L38.689 23.9452L38.0845 25.8517ZM39.6839 26.3588C40.8425 26.7291 41.595 27.2042 42.0465 27.7229L43.5551 26.4099C42.7826 25.5224 41.6601 24.8907 40.2927 24.4537L39.6839 26.3588ZM42.0465 27.7229C42.4812 28.2224 42.7188 28.8529 42.7188 29.6836H44.7188C44.7188 28.431 44.3444 27.3167 43.5551 26.4099L42.0465 27.7229ZM42.7188 29.6836C42.7188 30.8214 42.3191 31.6516 41.5316 32.2816L42.7809 33.8434C44.0768 32.8067 44.7188 31.3843 44.7188 29.6836H42.7188ZM41.5316 32.2816C40.7166 32.9336 39.5603 33.3125 37.957 33.3125V35.3125C39.8694 35.3125 41.5126 34.858 42.7809 33.8434L41.5316 32.2816ZM48.1719 33.8828H47.1719V34.8828H48.1719V33.8828ZM48.1719 20.8164L48.054 19.8234L47.1719 19.9281V20.8164H48.1719ZM51.2969 20.4453H52.2969V19.3195L51.179 19.4523L51.2969 20.4453ZM51.2969 33.8828V34.8828H52.2969V33.8828H51.2969ZM48.1719 24.0586H47.1719V25.7406L48.6496 24.9371L48.1719 24.0586ZM48.1719 21.5586L49.0498 21.0797L47.1719 21.5586H48.1719ZM48.6406 22.418L48.2092 23.3201L50.9998 24.6547L49.5185 21.9391L48.6406 22.418ZM45.9453 21.1289L44.9498 21.0341L44.8836 21.7296L45.5139 22.031L45.9453 21.1289ZM46.0234 20.3086L45.627 19.3905L45.084 19.625L45.0279 20.2138L46.0234 20.3086ZM48.0156 19.6641L48.2503 20.6361L48.2582 20.6342L48.266 20.6322L48.0156 19.6641ZM50.4375 19.2539V18.2539H50.3921L50.347 18.258L50.4375 19.2539ZM51.2969 19.2539H52.2969V18.2539H51.2969V19.2539ZM51.2969 22.3594L51.7746 23.2379L52.2969 22.9539V22.3594H51.2969ZM46.0625 34L45.066 33.917L44.9757 35H46.0625V34ZM46.1602 32.8281L45.7411 31.9202L45.212 32.1644L45.1636 32.7451L46.1602 32.8281ZM47.2539 32.418L47.5413 33.3758L47.5511 33.3728L47.5609 33.3697L47.2539 32.418ZM48.5625 32.0664L49.5279 32.3273L49.9591 30.7317L48.3456 31.0902L48.5625 32.0664ZM48.1719 33.5117H47.1719L49.1372 33.7726L48.1719 33.5117ZM48.1719 30.8359V29.8359H47.1719V30.8359H48.1719ZM51.2969 30.8359H52.2969V29.8359H51.2969V30.8359ZM51.2969 33.5117L50.3285 33.7612L52.2969 33.5117H51.2969ZM50.9648 32.2227L51.1842 31.247L49.5885 30.8883L49.9965 32.4721L50.9648 32.2227ZM53.4844 32.7891L54.4811 32.8694L54.5509 32.0039L53.7037 31.8134L53.4844 32.7891ZM53.3867 34V35H54.3093L54.3835 34.0804L53.3867 34ZM47.918 16.1875L47.2109 16.8946L47.2171 16.9008L47.2234 16.9069L47.918 16.1875ZM47.918 13.2188L47.2234 12.4993L47.2171 12.5054L47.2109 12.5116L47.918 13.2188ZM50.9453 13.2188L50.2382 13.9259L50.2444 13.9321L50.2507 13.9382L50.9453 13.2188ZM50.9453 16.1875L50.2507 15.4681L50.2444 15.4742L50.2382 15.4804L50.9453 16.1875ZM49.1719 33.8828V20.8164H47.1719V33.8828H49.1719ZM48.2898 21.8094L51.4148 21.4383L51.179 19.4523L48.054 19.8234L48.2898 21.8094ZM50.2969 20.4453V33.8828H52.2969V20.4453H50.2969ZM51.2969 32.8828H48.1719V34.8828H51.2969V32.8828ZM49.1719 24.0586V21.5586H47.1719V24.0586H49.1719ZM47.294 22.0374L47.7627 22.8968L49.5185 21.9391L49.0498 21.0797L47.294 22.0374ZM49.0721 21.5158L46.3768 20.2268L45.5139 22.031L48.2092 23.3201L49.0721 21.5158ZM46.9408 21.2237L47.0189 20.4034L45.0279 20.2138L44.9498 21.0341L46.9408 21.2237ZM46.4199 21.2267C46.9296 21.0065 47.5376 20.8082 48.2503 20.6361L47.781 18.692C46.9832 18.8845 46.2631 19.1159 45.627 19.3905L46.4199 21.2267ZM48.266 20.6322C48.9636 20.4518 49.717 20.3235 50.528 20.2498L50.347 18.258C49.4392 18.3405 48.5781 18.4857 47.7652 18.6959L48.266 20.6322ZM50.4375 20.2539H51.2969V18.2539H50.4375V20.2539ZM50.2969 19.2539V22.3594H52.2969V19.2539H50.2969ZM50.8192 21.4809L47.6942 23.1801L48.6496 24.9371L51.7746 23.2379L50.8192 21.4809ZM47.059 34.083L47.1567 32.9112L45.1636 32.7451L45.066 33.917L47.059 34.083ZM46.5792 33.7361C46.8713 33.6013 47.1915 33.4807 47.5413 33.3758L46.9666 31.4601C46.5351 31.5896 46.1261 31.7425 45.7411 31.9202L46.5792 33.7361ZM47.5609 33.3697C47.9314 33.2502 48.3372 33.1409 48.7794 33.0426L48.3456 31.0902C47.8503 31.2003 47.3837 31.3253 46.9469 31.4663L47.5609 33.3697ZM47.5971 31.8055L47.2065 33.2508L49.1372 33.7726L49.5279 32.3273L47.5971 31.8055ZM49.1719 33.5117V30.8359H47.1719V33.5117H49.1719ZM48.1719 31.8359H51.2969V29.8359H48.1719V31.8359ZM50.2969 30.8359V33.5117H52.2969V30.8359H50.2969ZM52.2653 33.2623L51.9332 31.9732L49.9965 32.4721L50.3285 33.7612L52.2653 33.2623ZM50.7455 33.1983L53.265 33.7647L53.7037 31.8134L51.1842 31.247L50.7455 33.1983ZM52.4876 32.7087L52.39 33.9196L54.3835 34.0804L54.4811 32.8694L52.4876 32.7087ZM53.3867 33H46.0625V35H53.3867V33ZM49.4414 15.7344C49.0033 15.7344 48.7651 15.6154 48.6126 15.4681L47.2234 16.9069C47.8261 17.4888 48.6035 17.7344 49.4414 17.7344V15.7344ZM48.6251 15.4804C48.4866 15.3419 48.3711 15.1229 48.3711 14.7031H46.3711C46.3711 15.5333 46.6202 16.3039 47.2109 16.8946L48.6251 15.4804ZM48.3711 14.7031C48.3711 14.2833 48.4866 14.0643 48.6251 13.9259L47.2109 12.5116C46.6202 13.1023 46.3711 13.8729 46.3711 14.7031H48.3711ZM48.6126 13.9382C48.7651 13.7909 49.0033 13.6719 49.4414 13.6719V11.6719C48.6035 11.6719 47.8261 11.9174 47.2234 12.4993L48.6126 13.9382ZM49.4414 13.6719C49.8809 13.6719 50.1036 13.7912 50.2382 13.9259L51.6524 12.5116C51.0579 11.9171 50.2779 11.6719 49.4414 11.6719V13.6719ZM50.2507 13.9382C50.3963 14.0787 50.5117 14.2936 50.5117 14.7031H52.5117C52.5117 13.8627 52.2495 13.0879 51.6399 12.4993L50.2507 13.9382ZM50.5117 14.7031C50.5117 15.1127 50.3963 15.3275 50.2507 15.4681L51.6399 16.9069C52.2495 16.3183 52.5117 15.5436 52.5117 14.7031H50.5117ZM50.2382 15.4804C50.1036 15.615 49.8809 15.7344 49.4414 15.7344V17.7344C50.2779 17.7344 51.0579 17.4892 51.6524 16.8946L50.2382 15.4804Z" fill="#13161B"/>
</svg>
