<svg width="251" height="138" viewBox="0 0 251 138" fill="none" xmlns="http://www.w3.org/2000/svg">
<path d="M13.8281 67.7031C10.2865 67.7031 7.46094 66.4141 5.35156 63.8359C3.24219 61.2578 2.1875 57.7812 2.1875 53.4062C2.1875 48.4583 3.54167 44.513 6.25 41.5703C8.98438 38.6276 12.6432 37.1562 17.2266 37.1562C21.1849 37.1562 23.9453 38.3802 25.5078 40.8281L24.2578 43.7578C21.9401 41.8047 19.4531 40.8281 16.7969 40.8281C14.2448 40.8281 12.2917 41.8047 10.9375 43.7578C9.58333 45.6849 8.90625 48.4453 8.90625 52.0391C8.90625 55.6068 9.57031 58.3542 10.8984 60.2812C12.2526 62.2083 14.1667 63.1719 16.6406 63.1719C19.0104 63.1719 21.4453 62.1953 23.9453 60.2422L24.6875 61.9219C21.4583 65.776 17.8385 67.7031 13.8281 67.7031ZM28.2031 64.7344L21.9531 63.1328V27.2734H28.2031V64.7344ZM21.9531 32.0781V27.1953L22.5781 28.5625L16.875 26.4141L17.0312 25.0078C19.6354 24.0703 22.5781 23.5365 25.8594 23.4062H28.2031V30.125L21.9531 32.0781ZM23.6719 67.1172L22.3438 62.0391L28.2031 60.3594V64.6172L27.3438 63.0547L32.1094 64.4219L31.9141 66.6875C29.7786 67.026 27.0312 67.1693 23.6719 67.1172ZM50.8984 67.625C46.1849 67.625 42.5521 66.349 40 63.7969C37.4479 61.2448 36.1719 57.599 36.1719 52.8594C36.1719 48.0677 37.4219 44.2526 39.9219 41.4141C42.4219 38.5755 45.7943 37.1562 50.0391 37.1562C53.8411 37.1562 56.7708 38.3542 58.8281 40.75C60.8854 43.1198 61.9141 46.5312 61.9141 50.9844C61.9141 51.375 61.901 51.7656 61.875 52.1562C61.849 52.5469 61.8099 52.9245 61.7578 53.2891L55.1953 52.0391C55.1953 48.0547 54.7135 45.1771 53.75 43.4062C52.8125 41.6354 51.276 40.75 49.1406 40.75C44.974 40.75 42.8906 44.0443 42.8906 50.6328C42.8906 58.9401 46.2109 63.0938 52.8516 63.0938C55.4557 63.0938 58.1771 62.5599 61.0156 61.4922L60.7422 65.1641C59.5182 65.9453 58.0469 66.5573 56.3281 67C54.6354 67.4167 52.8255 67.625 50.8984 67.625ZM38.7109 53.2891V50.0859H61.1328L61.7578 53.2891H38.7109Z" fill="black"/>
<path d="M124.102 57.8203C120.586 57.8203 117.786 56.8958 115.703 55.0469C113.62 53.1979 112.578 50.6979 112.578 47.5469C112.578 44.3698 113.62 41.8568 115.703 40.0078C117.786 38.1328 120.612 37.1953 124.18 37.1953C126.237 37.1953 128.125 37.638 129.844 38.5234C131.589 39.4089 132.995 40.6328 134.062 42.1953C135.13 43.7318 135.664 45.4896 135.664 47.4688C135.664 50.6458 134.622 53.1719 132.539 55.0469C130.456 56.8958 127.643 57.8203 124.102 57.8203ZM124.609 54.5391C127.812 54.5391 129.414 52.4297 129.414 48.2109C129.414 43.0547 127.487 40.4766 123.633 40.4766C120.43 40.4766 118.828 42.599 118.828 46.8438C118.828 49.3177 119.323 51.2188 120.312 52.5469C121.328 53.875 122.76 54.5391 124.609 54.5391ZM138.789 41.8438L129.844 41.375L124.18 37.1953C125.404 37.1953 126.354 37.2734 127.031 37.4297C127.708 37.5599 128.333 37.7031 128.906 37.8594C129.479 38.0156 130.221 38.0938 131.133 38.0938C131.784 38.0938 132.799 38.0547 134.18 37.9766C135.586 37.8724 137.253 37.7292 139.18 37.5469L138.789 41.8438ZM123.633 80.6719C119.857 80.6719 116.836 79.9557 114.57 78.5234C112.331 77.1172 111.211 75.2161 111.211 72.8203C111.211 69.8776 113.099 67.4818 116.875 65.6328L119.062 66.8828C117.448 68.1589 116.641 69.7083 116.641 71.5312C116.641 73.3542 117.357 74.7474 118.789 75.7109C120.221 76.6745 122.266 77.1562 124.922 77.1562C127.734 77.1562 129.961 76.6354 131.602 75.5938C133.268 74.5781 134.102 73.1979 134.102 71.4531C134.102 69.6302 132.878 68.7188 130.43 68.7188H121.523C119.258 68.7188 117.513 68.2109 116.289 67.1953C115.065 66.1797 114.453 64.7083 114.453 62.7812C114.453 59.6562 116.198 57.2214 119.688 55.4766L122.07 55.8672C120.143 57.2995 119.18 58.849 119.18 60.5156C119.18 62.2865 120.404 63.1719 122.852 63.1719H131.758C134.362 63.1719 136.354 63.7318 137.734 64.8516C139.141 65.9714 139.844 67.5599 139.844 69.6172C139.844 71.7526 139.141 73.6536 137.734 75.3203C136.354 76.987 134.44 78.2891 131.992 79.2266C129.57 80.1901 126.784 80.6719 123.633 80.6719ZM164.375 66.7656V47.0781C164.375 43.5104 162.656 41.7266 159.219 41.7266C156.51 41.7266 153.776 42.8203 151.016 45.0078L150.234 43.0547C151.823 41.1797 153.646 39.7344 155.703 38.7188C157.76 37.7031 159.922 37.1953 162.188 37.1953C164.896 37.1953 166.979 37.9505 168.438 39.4609C169.896 40.9453 170.625 43.0807 170.625 45.8672V66.7656H164.375ZM146.719 66.7656V40.6719L152.969 42.3125V66.7656H146.719ZM142.734 67L142.93 64.6562C143.685 64.2917 144.44 63.9922 145.195 63.7578C145.951 63.5234 146.706 63.3151 147.461 63.1328L146.719 66.0234V60.6719H152.969V66.0234L152.344 63.4453L157.109 64.5781L156.914 67H142.734ZM161.094 67L161.289 64.5C161.836 64.2396 162.422 63.9922 163.047 63.7578C163.672 63.5234 164.362 63.3151 165.117 63.1328L164.375 66.0234V60.6719H170.625V66.0234L170 63.4453L174.766 64.5781L174.57 67H161.094ZM146.719 47.1172V42.1172L147.656 43.8359L142.266 41.2578L142.422 39.6172C143.568 39.1224 144.896 38.6927 146.406 38.3281C147.917 37.9375 149.531 37.6641 151.25 37.5078L152.734 43.7188L146.719 47.1172Z" fill="black"/>
<path d="M76.9141 67.625C73.2943 67.625 70.2865 66.7917 67.8906 65.125C67.6823 64.1615 67.526 63.0547 67.4219 61.8047C67.3177 60.5286 67.3047 59.2266 67.3828 57.8984H70.4297L73.6328 64.6172L71.0938 62.2734C73.0729 63.5495 75.2214 64.1875 77.5391 64.1875C80.8984 64.1875 82.5781 62.8464 82.5781 60.1641C82.5781 58.1849 81.224 56.7526 78.5156 55.8672L75.3125 54.8516C70.2604 53.263 67.7344 50.3724 67.7344 46.1797C67.7344 43.4453 68.6979 41.2708 70.625 39.6562C72.5521 38.0417 75.1302 37.2344 78.3594 37.2344C81.276 37.2344 83.8932 37.8333 86.2109 39.0312C86.6536 41.0104 86.8359 43.1849 86.7578 45.5547H83.5547L80.3516 38.8359L84.1797 42.5078C81.9401 41.2839 79.7917 40.6719 77.7344 40.6719C74.8698 40.6719 73.4375 41.9089 73.4375 44.3828C73.4375 46.388 74.8828 47.8594 77.7734 48.7969L80.9766 49.8125C83.5026 50.6198 85.3776 51.7266 86.6016 53.1328C87.8255 54.5391 88.4375 56.2839 88.4375 58.3672C88.4375 61.2057 87.3958 63.4583 85.3125 65.125C83.2292 66.7917 80.4297 67.625 76.9141 67.625ZM97.3438 66.7656V40.6328L103.594 39.8906V66.7656H97.3438ZM97.3438 47.1172V42.1172L98.2812 43.8359L92.8906 41.2578L93.0469 39.6172C94.1927 39.1224 95.5208 38.6927 97.0312 38.3281C98.5417 37.9375 100.156 37.6641 101.875 37.5078H103.594V43.7188L97.3438 47.1172ZM93.125 67L93.3203 64.6562C93.9974 64.3438 94.7266 64.0703 95.5078 63.8359C96.3151 63.5755 97.1875 63.3411 98.125 63.1328L97.3438 66.0234V60.6719H103.594V66.0234L102.93 63.4453L107.969 64.5781L107.773 67H93.125ZM99.8828 32.4688C98.6068 32.4688 97.5911 32.1042 96.8359 31.375C96.1068 30.6458 95.7422 29.6562 95.7422 28.4062C95.7422 27.1562 96.1068 26.1667 96.8359 25.4375C97.5911 24.7083 98.6068 24.3438 99.8828 24.3438C101.159 24.3438 102.161 24.7083 102.891 25.4375C103.646 26.1667 104.023 27.1562 104.023 28.4062C104.023 29.6562 103.646 30.6458 102.891 31.375C102.161 32.1042 101.159 32.4688 99.8828 32.4688Z" fill="#8E7D61"/>
<path d="M67.8906 65.125L66.9132 65.3363L66.9964 65.7211L67.3196 65.9459L67.8906 65.125ZM67.4219 61.8047L66.4252 61.886L66.4253 61.8877L67.4219 61.8047ZM67.3828 57.8984V56.8984H66.4399L66.3845 57.8397L67.3828 57.8984ZM70.4297 57.8984L71.3324 57.4681L71.0608 56.8984H70.4297V57.8984ZM73.6328 64.6172L72.9545 65.352L74.5355 64.1868L73.6328 64.6172ZM71.0938 62.2734L71.6356 61.433L70.4155 63.0082L71.0938 62.2734ZM78.5156 55.8672L78.8264 54.9167L78.8179 54.914L78.5156 55.8672ZM75.3125 54.8516L75.6147 53.8983L75.6125 53.8976L75.3125 54.8516ZM70.625 39.6562L69.9828 38.8897L70.625 39.6562ZM86.2109 39.0312L87.1868 38.813L87.0849 38.3573L86.6701 38.1429L86.2109 39.0312ZM86.7578 45.5547V46.5547H87.7254L87.7573 45.5876L86.7578 45.5547ZM83.5547 45.5547L82.652 45.985L82.9236 46.5547H83.5547V45.5547ZM80.3516 38.8359L81.0438 38.1143L79.4489 39.2663L80.3516 38.8359ZM84.1797 42.5078L83.7001 43.3853L84.8719 41.7861L84.1797 42.5078ZM77.7734 48.7969L77.4649 49.7481L77.4712 49.7501L77.7734 48.7969ZM80.9766 49.8125L81.281 48.86L81.2788 48.8593L80.9766 49.8125ZM85.3125 65.125L84.6878 64.3441L85.3125 65.125ZM76.9141 66.625C73.449 66.625 70.6534 65.8288 68.4617 64.3041L67.3196 65.9459C69.9195 67.7546 73.1396 68.625 76.9141 68.625V66.625ZM68.868 64.9137C68.6709 64.002 68.5199 62.9395 68.4184 61.7216L66.4253 61.8877C66.5322 63.1699 66.6937 64.3209 66.9132 65.3363L68.868 64.9137ZM68.4186 61.7233C68.3183 60.4957 68.3056 59.2404 68.3811 57.9572L66.3845 57.8397C66.3038 59.2127 66.3171 60.5616 66.4252 61.886L68.4186 61.7233ZM67.3828 58.8984H70.4297V56.8984H67.3828V58.8984ZM69.527 58.3288L72.7301 65.0475L74.5355 64.1868L71.3324 57.4681L69.527 58.3288ZM74.3111 63.8824L71.772 61.5386L70.4155 63.0082L72.9545 65.352L74.3111 63.8824ZM70.5519 63.1139C72.6898 64.4923 75.0259 65.1875 77.5391 65.1875V63.1875C75.4168 63.1875 73.456 62.6066 71.6356 61.433L70.5519 63.1139ZM77.5391 65.1875C79.3253 65.1875 80.8499 64.8354 81.9423 63.9631C83.0777 63.0565 83.5781 61.7266 83.5781 60.1641H81.5781C81.5781 61.2838 81.2387 61.9656 80.6944 62.4002C80.1071 62.8691 79.1122 63.1875 77.5391 63.1875V65.1875ZM83.5781 60.1641C83.5781 58.9201 83.1426 57.8211 82.2891 56.9185C81.4578 56.0392 80.273 55.3896 78.8264 54.9167L78.2049 56.8177C79.4666 57.2302 80.313 57.7395 80.8359 58.2925C81.3366 58.8221 81.5781 59.4288 81.5781 60.1641H83.5781ZM78.8179 54.914L75.6147 53.8983L75.0103 55.8048L78.2134 56.8204L78.8179 54.914ZM75.6125 53.8976C73.1979 53.1384 71.4864 52.0981 70.3819 50.8342C69.2933 49.5884 68.7344 48.0581 68.7344 46.1797H66.7344C66.7344 48.494 67.4385 50.5053 68.8759 52.1502C70.2974 53.7769 72.3751 54.9762 75.0125 55.8055L75.6125 53.8976ZM68.7344 46.1797C68.7344 43.7117 69.5885 41.8292 71.2672 40.4228L69.9828 38.8897C67.8073 40.7124 66.7344 43.1789 66.7344 46.1797H68.7344ZM71.2672 40.4228C72.9682 38.9976 75.2969 38.2344 78.3594 38.2344V36.2344C74.9635 36.2344 72.136 37.0857 69.9828 38.8897L71.2672 40.4228ZM78.3594 38.2344C81.1354 38.2344 83.5921 38.8033 85.7518 39.9196L86.6701 38.1429C84.1944 36.8633 81.4167 36.2344 78.3594 36.2344V38.2344ZM85.2351 39.2495C85.6565 41.1338 85.8342 43.2225 85.7584 45.5217L87.7573 45.5876C87.8377 43.1473 87.6508 40.887 87.1868 38.813L85.2351 39.2495ZM86.7578 44.5547H83.5547V46.5547H86.7578V44.5547ZM84.4574 45.1243L81.2542 38.4056L79.4489 39.2663L82.652 45.985L84.4574 45.1243ZM79.6593 39.5576L83.4875 43.2295L84.8719 41.7861L81.0438 38.1143L79.6593 39.5576ZM84.6593 41.6303C82.3075 40.345 79.995 39.6719 77.7344 39.6719V41.6719C79.5884 41.6719 81.5727 42.2227 83.7001 43.3853L84.6593 41.6303ZM77.7344 39.6719C76.1809 39.6719 74.8292 40.0041 73.8581 40.8428C72.859 41.7057 72.4375 42.9503 72.4375 44.3828H74.4375C74.4375 43.3413 74.7322 42.7305 75.1653 42.3564C75.6266 41.9581 76.4232 41.6719 77.7344 41.6719V39.6719ZM72.4375 44.3828C72.4375 45.6558 72.9076 46.7743 73.8081 47.691C74.6843 48.583 75.9335 49.2514 77.4649 49.7481L78.0819 47.8457C76.7227 47.4048 75.8039 46.8688 75.2349 46.2895C74.6901 45.7348 74.4375 45.1151 74.4375 44.3828H72.4375ZM77.4712 49.7501L80.6743 50.7657L81.2788 48.8593L78.0757 47.8436L77.4712 49.7501ZM80.6721 50.765C83.0938 51.539 84.7838 52.5675 85.8473 53.7893L87.3559 52.4763C85.9714 50.8857 83.9114 49.7006 81.281 48.86L80.6721 50.765ZM85.8473 53.7893C86.8939 54.9919 87.4375 56.4948 87.4375 58.3672H89.4375C89.4375 56.0729 88.7571 54.0862 87.3559 52.4763L85.8473 53.7893ZM87.4375 58.3672C87.4375 60.9243 86.517 62.8808 84.6878 64.3441L85.9372 65.9059C88.2747 64.0359 89.4375 61.4871 89.4375 58.3672H87.4375ZM84.6878 64.3441C82.8311 65.8295 80.2751 66.625 76.9141 66.625V68.625C80.5842 68.625 83.6272 67.7539 85.9372 65.9059L84.6878 64.3441ZM97.3438 66.7656H96.3438V67.7656H97.3438V66.7656ZM97.3438 40.6328L97.2258 39.6398L96.3438 39.7445V40.6328H97.3438ZM103.594 39.8906H104.594V38.7648L103.476 38.8976L103.594 39.8906ZM103.594 66.7656V67.7656H104.594V66.7656H103.594ZM97.3438 47.1172H96.3438V48.7992L97.8214 47.9957L97.3438 47.1172ZM97.3438 42.1172L98.2216 41.6383L96.3438 42.1172H97.3438ZM98.2812 43.8359L97.8498 44.7381L100.64 46.0727L99.1591 43.3571L98.2812 43.8359ZM92.8906 41.2578L91.8951 41.163L91.8289 41.8585L92.4592 42.1599L92.8906 41.2578ZM93.0469 39.6172L92.6504 38.6991L92.1075 38.9336L92.0514 39.5224L93.0469 39.6172ZM97.0312 38.3281L97.2659 39.3002L97.2738 39.2983L97.2816 39.2963L97.0312 38.3281ZM101.875 37.5078V36.5078H101.83L101.784 36.5119L101.875 37.5078ZM103.594 37.5078H104.594V36.5078H103.594V37.5078ZM103.594 43.7188L104.071 44.5973L104.594 44.3133V43.7188H103.594ZM93.125 67L92.1285 66.917L92.0382 68H93.125V67ZM93.3203 64.6562L92.9013 63.7483L92.3722 63.9925L92.3238 64.5732L93.3203 64.6562ZM95.5078 63.8359L95.7952 64.7938L95.805 64.7908L95.8148 64.7876L95.5078 63.8359ZM98.125 63.1328L99.0904 63.3937L99.5216 61.7981L97.9081 62.1566L98.125 63.1328ZM97.3438 66.0234H96.3438L98.3091 66.2843L97.3438 66.0234ZM97.3438 60.6719V59.6719H96.3438V60.6719H97.3438ZM103.594 60.6719H104.594V59.6719H103.594V60.6719ZM103.594 66.0234L102.625 66.2729L104.594 66.0234H103.594ZM102.93 63.4453L103.149 62.4697L101.553 62.1109L101.961 63.6947L102.93 63.4453ZM107.969 64.5781L108.966 64.6585L109.035 63.7929L108.188 63.6025L107.969 64.5781ZM107.773 67V68H108.696L108.77 67.0804L107.773 67ZM96.8359 31.375L96.1288 32.0821L96.135 32.0883L96.1413 32.0944L96.8359 31.375ZM96.8359 25.4375L96.1413 24.7181L96.135 24.7242L96.1288 24.7304L96.8359 25.4375ZM102.891 25.4375L102.184 26.1446L102.19 26.1508L102.196 26.1569L102.891 25.4375ZM102.891 31.375L102.196 30.6556L102.19 30.6617L102.184 30.6679L102.891 31.375ZM98.3438 66.7656V40.6328H96.3438V66.7656H98.3438ZM97.4617 41.6258L103.712 40.8836L103.476 38.8976L97.2258 39.6398L97.4617 41.6258ZM102.594 39.8906V66.7656H104.594V39.8906H102.594ZM103.594 65.7656H97.3438V67.7656H103.594V65.7656ZM98.3438 47.1172V42.1172H96.3438V47.1172H98.3438ZM96.4659 42.596L97.4034 44.3148L99.1591 43.3571L98.2216 41.6383L96.4659 42.596ZM98.7127 42.9338L93.3221 40.3557L92.4592 42.1599L97.8498 44.7381L98.7127 42.9338ZM93.8861 41.3526L94.0424 39.712L92.0514 39.5224L91.8951 41.163L93.8861 41.3526ZM93.4433 40.5352C94.526 40.0677 95.798 39.6545 97.2659 39.3002L96.7966 37.356C95.2436 37.7309 93.8594 38.1771 92.6504 38.6991L93.4433 40.5352ZM97.2816 39.2963C98.7344 38.9205 100.295 38.6556 101.966 38.5037L101.784 36.5119C100.017 36.6726 98.3489 36.9545 96.7809 37.36L97.2816 39.2963ZM101.875 38.5078H103.594V36.5078H101.875V38.5078ZM102.594 37.5078V43.7188H104.594V37.5078H102.594ZM103.116 42.8402L96.8661 46.2387L97.8214 47.9957L104.071 44.5973L103.116 42.8402ZM94.1215 67.083L94.3169 64.7393L92.3238 64.5732L92.1285 66.917L94.1215 67.083ZM93.7394 65.5642C94.37 65.2731 95.0548 65.0159 95.7952 64.7938L95.2205 62.8781C94.3983 63.1248 93.6248 63.4144 92.9013 63.7483L93.7394 65.5642ZM95.8148 64.7876C96.5889 64.5379 97.4309 64.3114 98.3419 64.109L97.9081 62.1566C96.9441 62.3708 96.0413 62.6131 95.2008 62.8842L95.8148 64.7876ZM97.1596 62.8719L96.3784 65.7625L98.3091 66.2843L99.0904 63.3937L97.1596 62.8719ZM98.3438 66.0234V60.6719H96.3438V66.0234H98.3438ZM97.3438 61.6719H103.594V59.6719H97.3438V61.6719ZM102.594 60.6719V66.0234H104.594V60.6719H102.594ZM104.562 65.774L103.898 63.1959L101.961 63.6947L102.625 66.2729L104.562 65.774ZM102.71 64.421L107.749 65.5538L108.188 63.6025L103.149 62.4697L102.71 64.421ZM106.972 64.4977L106.777 66.9196L108.77 67.0804L108.966 64.6585L106.972 64.4977ZM107.773 66H93.125V68H107.773V66ZM99.8828 31.4688C98.8067 31.4688 98.0607 31.1674 97.5305 30.6556L96.1413 32.0944C97.1216 33.0409 98.4068 33.4688 99.8828 33.4688V31.4688ZM97.543 30.6679C97.04 30.1648 96.7422 29.4511 96.7422 28.4062H94.7422C94.7422 29.8614 95.1736 31.1268 96.1288 32.0821L97.543 30.6679ZM96.7422 28.4062C96.7422 27.3614 97.04 26.6477 97.543 26.1446L96.1288 24.7304C95.1736 25.6857 94.7422 26.9511 94.7422 28.4062H96.7422ZM97.5305 26.1569C98.0607 25.6451 98.8067 25.3438 99.8828 25.3438V23.3438C98.4068 23.3438 97.1216 23.7716 96.1413 24.7181L97.5305 26.1569ZM99.8828 25.3438C100.96 25.3438 101.684 25.6454 102.184 26.1446L103.598 24.7304C102.639 23.7713 101.357 23.3438 99.8828 23.3438V25.3438ZM102.196 26.1569C102.719 26.6621 103.023 27.3717 103.023 28.4062H105.023C105.023 26.9408 104.572 25.6713 103.585 24.7181L102.196 26.1569ZM103.023 28.4062C103.023 29.4408 102.719 30.1504 102.196 30.6556L103.585 32.0944C104.572 31.1412 105.023 29.8717 105.023 28.4062H103.023ZM102.184 30.6679C101.684 31.1671 100.96 31.4688 99.8828 31.4688V33.4688C101.357 33.4688 102.639 33.0412 103.598 32.0821L102.184 30.6679Z" fill="#13161B"/>
</svg>
